# xmcd
#
# Track frame offsets: 
#        150
#        15037
#        33278
#        53357
#        54648
#        75183
#
# Disc length: 1363 seconds
#
# Revision: 0
# Processed by: cddbd v1.5.2PL0 Copyright (c) Steve Scherf et al.
# Submitted via: ExactAudioCopy v0.99pb4
#
DISCID=2c055106
DTITLE=Anchorsong - The Storytelling EP
DYEAR=2007
DGENRE=Hip-Hop
TTITLE0=Calling (Never Stop)
TTITLE1=DrumSonG#2
TTITLE2=Cutting The Edge
TTITLE3="What's Chaga-Chaga?" (Skit)
TTITLE4=In His Left Pocket
TTITLE5=Breathe Breathe Me
EXTD=
EXTT0=
EXTT1=
EXTT2=
EXTT3=
EXTT4=
EXTT5=
PLAYORDER=
